<?xml version="1.0" encoding="UTF-8"?>
<svg version="1.1" xmlns="http://www.w3.org/2000/svg" width="1772" height="886">
<path d="M0 0 C38 0 38 0 45.5625 7.375 C46.71413514 9.74705395 47.86519663 12.12269434 48.87597656 14.55810547 C50.81018192 18.76008678 53.64838143 22.27166298 56.4375 25.9375 C57.53377368 27.44383771 58.6262212 28.95296736 59.71484375 30.46484375 C60.25737793 31.21362793 60.79991211 31.96241211 61.35888672 32.73388672 C64.07648179 36.48644808 66.78790019 40.24346626 69.5 44 C70.58071734 45.49610229 71.66144652 46.99219604 72.7421875 48.48828125 C74.93639624 51.52626418 77.12892539 54.56544994 79.3203125 57.60546875 C79.87396484 58.37310547 80.42761719 59.14074219 80.99804688 59.93164062 C82.0232693 61.35316752 83.04806843 62.77499988 84.07226562 64.19726562 C89.33853128 71.49710923 94.67639681 78.7405411 100 86 C100.33 57.62 100.66 29.24 101 0 C115.52 0 130.04 0 145 0 C145 56.43 145 112.86 145 171 C107 171 107 171 98.9375 163.125 C97.65030764 160.62114637 96.36275225 158.1139883 95.22216797 155.54003906 C93.18553298 151.30728827 90.33201477 147.72635689 87.5 144 C86.41260596 142.50294111 85.32926464 141.00293012 84.25 139.5 C83.71375 138.7575 83.1775 138.015 82.625 137.25 C81 135 79.375 132.75 77.75 130.5 C77.2135083 129.75717773 76.6770166 129.01435547 76.12426758 128.24902344 C75.04332809 126.75231299 73.96243599 125.25556832 72.8815918 123.75878906 C70.1370246 119.95817363 67.39158034 116.15819702 64.64453125 112.359375 C64.08636719 111.58722656 63.52820312 110.81507813 62.953125 110.01953125 C61.91568396 108.58440448 60.87796015 107.14948206 59.83984375 105.71484375 C54.86403927 98.8303312 49.93758875 91.91262425 45 85 C44.67 113.38 44.34 141.76 44 171 C29.48 171 14.96 171 0 171 C0 114.57 0 58.14 0 0 Z " fill="#191919" transform="translate(1513,253)"/>
<path d="M0 0 C16.45952974 15.596079 25.23979767 36.42534238 25.890625 58.9375 C26.25499707 85.73161163 20.57966244 109.27379567 1.41015625 129.03515625 C-18.71163084 148.04812525 -43.47189661 153.73375724 -70.3828125 153.00390625 C-95.18575309 151.90093838 -117.02094753 142.77406638 -134.3125 124.6875 C-151.78530502 104.34245306 -155.89310817 79.71288615 -154.3125 53.6875 C-151.8219398 31.46078756 -142.67473772 12.10889478 -125.56640625 -2.6875 C-89.43694071 -31.09207318 -34.78196121 -29.58342463 0 0 Z M-97.625 30.9375 C-108.87412874 44.45918 -109.53027132 59.82441162 -108.3125 76.6875 C-106.67456134 88.43393512 -100.51384395 97.44983052 -91.609375 104.96484375 C-80.49893729 113.29767203 -67.69236916 113.7839859 -54.3125 112.6875 C-42.18081589 110.42805407 -33.57252516 103.4320671 -26.3125 93.6875 C-18.64277367 80.34489916 -18.02487358 64.42399632 -21.3125 49.6875 C-24.36597244 38.49569305 -30.40594814 29.04958293 -40.34765625 22.71484375 C-58.86846561 13.03100108 -83.03935289 15.44880157 -97.625 30.9375 Z " fill="#191919" transform="translate(1468.3125,273.3125)"/>
<path d="M0 0 C16.94060445 14.96018624 27.34340984 33.80595222 29.34765625 56.5625 C30.65674872 84.01253273 25.62799837 108.26874729 7.2265625 129.3671875 C-11.00293974 148.01040894 -35.00323305 155.2567152 -60.58984375 155.55859375 C-86.71140279 155.50612911 -109.29924332 148.05400396 -128.40234375 129.80859375 C-133.30133813 124.68918018 -137.1429777 119.39960274 -140.52734375 113.18359375 C-141.32785156 111.72373047 -141.32785156 111.72373047 -142.14453125 110.234375 C-152.96420196 88.7834358 -154.7304605 60.00509374 -147.26367188 37.19238281 C-138.98983135 14.6203802 -123.81582604 -1.9873857 -102.10546875 -12.24609375 C-69.75383254 -26.44408257 -27.4376135 -23.00237328 0 0 Z M-94.71484375 34.30859375 C-103.1603886 44.19767966 -106.08380486 57.38813634 -105.7734375 70.16796875 C-104.89281831 80.95904838 -102.4723479 90.09873487 -96.52734375 99.18359375 C-95.94984375 100.09109375 -95.37234375 100.99859375 -94.77734375 101.93359375 C-84.99226366 111.71867384 -74.08295844 115.53140091 -60.46484375 115.68359375 C-47.92180901 115.55471503 -37.92552186 111.97022891 -28.58984375 103.40625 C-19.32356221 93.6407076 -16.1202744 81.01353132 -16.21484375 67.87109375 C-16.2204834 67.04222656 -16.22612305 66.21335937 -16.23193359 65.359375 C-16.48103493 52.69220228 -20.00649238 41.0948621 -28.52734375 31.43359375 C-39.13208814 21.58972788 -51.91189039 19.69290271 -65.70703125 19.90625 C-77.9333693 20.38566747 -86.41854103 25.76510138 -94.71484375 34.30859375 Z " fill="#191919" transform="translate(735.52734375,270.81640625)"/>
<path d="M0 0 C0 14.52 0 29.04 0 44 C-3.526875 44.556875 -7.05375 45.11375 -10.6875 45.6875 C-34.13804752 49.66375449 -55.46579781 60.64022388 -69.78710938 80.21923828 C-86.06130022 104.11294763 -86.33490665 129.35250671 -86.38085938 157.24389648 C-86.43165986 175.63494186 -87.39254314 193.5204059 -94.25 210.8125 C-94.5488208 211.58762939 -94.8476416 212.36275879 -95.15551758 213.16137695 C-107.98989806 245.55164166 -133.24309465 271.9353398 -165.17089844 285.953125 C-174.11810766 289.72851463 -183.16529045 292.52850452 -192.6875 294.4375 C-193.4810791 294.6015332 -194.2746582 294.76556641 -195.09228516 294.93457031 C-203.27790738 296.4114515 -210.33390977 296 -219 296 C-219 281.15 -219 266.3 -219 251 C-212.73 250.34 -206.46 249.68 -200 249 C-196.67294958 248.23014456 -193.82191657 247.53640279 -190.6875 246.375 C-189.95515137 246.11485107 -189.22280273 245.85470215 -188.46826172 245.58666992 C-175.66659034 240.83927907 -165.54780085 233.65914547 -156 224 C-154.89011719 222.90558594 -154.89011719 222.90558594 -153.7578125 221.7890625 C-136.11737632 203.32494837 -131.92492564 178.68907009 -131.82421875 154.12109375 C-131.80101108 151.87694384 -131.77689336 149.6328032 -131.75195312 147.38867188 C-131.71705186 143.92270747 -131.6875763 140.45708463 -131.67407227 136.9909668 C-131.60697715 122.52009947 -130.80008861 109.00218359 -127 95 C-126.72997665 93.99753738 -126.72997665 93.99753738 -126.45449829 92.974823 C-121.72224507 75.72246133 -112.66866468 59.49868818 -101 46 C-100.57783203 45.49710449 -100.15566406 44.99420898 -99.72070312 44.47607422 C-81.32581562 22.63041647 -55.65125828 8.34140949 -28 2 C-26.93136719 1.75378906 -25.86273438 1.50757813 -24.76171875 1.25390625 C-16.28657656 -0.40901069 -8.95201829 0 0 0 Z " fill="#0858DB" transform="translate(332,295)"/>
<path d="M0 0 C14.85 0 29.7 0 45 0 C45.0093457 3.17326904 45.01869141 6.34653809 45.02832031 9.6159668 C45.06218979 20.13730931 45.11779412 30.65845775 45.18390274 41.17964458 C45.22329797 47.55442474 45.25552555 53.9290684 45.27099609 60.30395508 C45.28621489 66.46385817 45.32075345 72.6233858 45.36830902 78.78312111 C45.38306897 81.12522925 45.3910379 83.46739102 45.39188385 85.80954552 C44.99972441 106.26440068 44.99972441 106.26440068 53.125 124.5625 C59.57041686 130.96729449 66.69761531 132.37705093 75.5 132.5 C83.28233356 132.3912987 90.00600218 131.50711047 96.05078125 126.19921875 C102.22875496 119.61193829 105.08452196 112.34223326 105.15821838 103.29862976 C105.1680072 102.3830278 105.17779602 101.46742584 105.18788147 100.52407837 C105.19363693 99.53217499 105.1993924 98.54027161 105.20532227 97.51831055 C105.21522186 96.46419479 105.22512146 95.41007904 105.23532104 94.32402039 C105.2668711 90.84494257 105.29166788 87.36585111 105.31640625 83.88671875 C105.33698138 81.47247465 105.357978 79.05823411 105.37937927 76.64399719 C105.43454219 70.29335412 105.483977 63.94267884 105.53222656 57.59197998 C105.58248376 51.110119 105.63814781 44.62830471 105.69335938 38.14648438 C105.80087029 25.43102801 105.90183128 12.71553193 106 0 C120.85 0 135.7 0 151 0 C151.04532337 13.70927487 151.08195783 27.41849934 151.10362434 41.12783241 C151.11402719 47.49475531 151.12812207 53.86162395 151.15087891 60.22851562 C151.17273256 66.38176374 151.18459489 72.53495991 151.18975449 78.68824387 C151.19342787 81.02677604 151.20060058 83.36530562 151.21146011 85.70381546 C151.32779323 111.8117871 149.35155887 134.62594402 130.6328125 154.58203125 C115.3751404 168.59464109 96.02473364 173.42352842 75.6875 173.3125 C74.59518066 173.30686035 73.50286133 173.3012207 72.37744141 173.29541016 C51.74400831 172.98662712 33.85248722 167.18998788 18.7265625 152.84375 C0.10173562 133.14853077 -0.31211041 108.55801817 -0.1953125 83.10546875 C-0.19157639 80.70266335 -0.18873225 78.29985642 -0.18673706 75.89704895 C-0.17914767 69.61221007 -0.15954006 63.32746552 -0.1373291 57.04266357 C-0.11676893 50.61374181 -0.1077137 44.18480463 -0.09765625 37.75585938 C-0.07628927 25.17052508 -0.04114597 12.58528519 0 0 Z " fill="#191919" transform="translate(905,253)"/>
<path d="M0 0 C10.83183266 9.36167753 16.42284792 19.98579517 18.50390625 34.1640625 C18.59206749 36.84008595 18.55911063 39.48519736 18.50390625 42.1640625 C14.3641195 42.45552581 10.22391934 42.7399516 6.08325195 43.01855469 C4.68208573 43.11374391 3.28103673 43.21067866 1.88012695 43.30957031 C-7.93225281 44.00063263 -17.65783269 44.29200521 -27.49609375 44.1640625 C-27.61831299 43.52452637 -27.74053223 42.88499023 -27.86645508 42.22607422 C-29.25770798 34.69748792 -29.25770798 34.69748792 -34.046875 28.9765625 C-39.88525792 25.49529069 -45.86310974 25.30043908 -52.49609375 26.1640625 C-57.42274552 27.49622914 -59.84413318 29.11697431 -62.55859375 33.4765625 C-63.85131236 38.56125571 -63.13152179 42.25777838 -61.49609375 47.1640625 C-57.67138177 49.05176565 -53.50079198 50.15226367 -49.43359375 51.4140625 C-48.74458984 51.62949707 -48.05558594 51.84493164 -47.34570312 52.06689453 C-43.43051111 53.28408423 -39.50573376 54.45501787 -35.5625 55.578125 C-16.66969834 60.9953896 4.42478436 67.55970782 16.109375 84.39453125 C19.95039039 92.0227663 21.03538992 99.51281119 20.94140625 107.9765625 C20.93004639 109.41841919 20.93004639 109.41841919 20.91845703 110.8894043 C20.65168535 122.45308046 17.8941646 132.04761242 10.50390625 141.1640625 C10.02566406 141.76605469 9.54742188 142.36804688 9.0546875 142.98828125 C-1.03580189 154.29877944 -16.86100967 159.55630686 -31.49609375 161.1640625 C-55.37719608 162.33508671 -78.6368873 160.2134012 -97.74609375 144.2890625 C-106.52352583 136.043596 -112.26773591 125.20196933 -113.49609375 113.1640625 C-113.56652283 109.82874259 -113.55541874 106.49944523 -113.49609375 103.1640625 C-108.07882367 102.30222408 -102.72339968 101.86359079 -97.24609375 101.6015625 C-96.38725586 101.559104 -95.52841797 101.51664551 -94.64355469 101.47290039 C-85.59368475 101.06296735 -76.55285959 101.07185561 -67.49609375 101.1640625 C-67.38797363 101.76299316 -67.27985352 102.36192383 -67.16845703 102.97900391 C-65.70802401 110.36188895 -63.14166546 115.00337672 -56.78515625 119.328125 C-49.7807532 122.60092468 -40.13756413 122.42437416 -32.8203125 120.4375 C-29.78751605 119.07357326 -27.7983377 117.61138354 -25.93359375 114.8515625 C-25.34736646 111.25045203 -25.5490861 108.69955774 -26.49609375 105.1640625 C-35.05704422 95.28019429 -49.3357349 92.98235728 -61.44091797 89.7019043 C-68.76998922 87.69968942 -75.67344768 85.55399793 -82.49609375 82.1640625 C-83.44226563 81.70386719 -84.3884375 81.24367188 -85.36328125 80.76953125 C-96.3185357 75.14345885 -104.33747878 68.24652261 -108.30859375 56.3515625 C-112.06789539 40.9276849 -110.10121307 24.28819005 -102.0859375 10.62890625 C-93.96631272 -1.95950465 -81.09652613 -9.24318425 -66.68359375 -12.6484375 C-44.11999921 -16.67354356 -18.55389977 -14.42180855 0 0 Z " fill="#191919" transform="translate(553.49609375,264.8359375)"/>
<path d="M0 0 C14.52 0 29.04 0 44 0 C44 23.2330763 44 23.2330763 42.8125 30.4375 C42.6794043 31.29400146 42.54630859 32.15050293 42.40917969 33.03295898 C35.28993097 76.70803685 16.4307049 117.50497028 -14.49414062 149.44287109 C-15.55641883 150.54131636 -16.61178237 151.64646921 -17.66210938 152.75634766 C-51.3624345 188.3174843 -96.75614182 209.87180075 -145 217 C-145.74620605 217.1134375 -146.49241211 217.226875 -147.26123047 217.34375 C-156.51070497 218.50776514 -165.6076984 218 -175 218 C-175 203.15 -175 188.3 -175 173 C-168.73 172.67 -162.46 172.34 -156 172 C-117.40020402 166.63891723 -83.44289805 151.98208456 -55 125 C-54.2579834 124.30680664 -54.2579834 124.30680664 -53.50097656 123.59960938 C-20.82527592 92.91461296 -3.52390654 50.47613772 -1.24609375 6.08203125 C-1 3 -1 3 0 0 Z " fill="#0858DB" transform="translate(288,460)"/>
<path d="M0 0 C0 14.52 0 29.04 0 44 C-6.001875 44.5878125 -6.001875 44.5878125 -12.125 45.1875 C-59.58524309 50.30376525 -103.28306302 70.73885474 -134 108 C-152.21977543 131.20358477 -164.84889673 157.89914372 -170.25 186.9375 C-170.40106201 187.74525879 -170.55212402 188.55301758 -170.70776367 189.38525391 C-172.3425678 198.89164454 -173.03515435 208.35154353 -174 218 C-188.85 218 -203.7 218 -219 218 C-217.83104678 192.28302915 -217.83104678 192.28302915 -216.3125 183.5 C-216.05194824 181.94974121 -216.05194824 181.94974121 -215.78613281 180.36816406 C-208.54276835 139.28058714 -190.28340358 102.14258109 -162.14453125 71.3671875 C-160.25461926 69.28105514 -158.43688253 67.15350239 -156.625 65 C-117.90839336 20.91586381 -57.0884895 0 0 0 Z " fill="#0858DB" transform="translate(332,208)"/>
<path d="M0 0 C89.9226361 0 89.9226361 0 107 8 C107.92941406 8.41894531 108.85882812 8.83789062 109.81640625 9.26953125 C117.75301328 13.18703145 123.797168 18.82326687 130 25 C130.74378906 25.70898438 131.48757813 26.41796875 132.25390625 27.1484375 C149.22278436 44.48259479 151.42925988 69.34427218 151.21484375 92.29296875 C151.04609256 99.8511354 150.15946685 106.72372415 148 114 C147.64808594 115.19496094 147.29617188 116.38992188 146.93359375 117.62109375 C142.85376255 130.12988312 136.16989552 139.66979163 127 149 C126.38640625 149.62648438 125.7728125 150.25296875 125.140625 150.8984375 C92.99938244 181.25405548 36.48773817 170 0 170 C0 113.9 0 57.8 0 0 Z M28 24 C28 64.26 28 104.52 28 146 C72.616432 148.92592385 72.616432 148.92592385 108.640625 130.57421875 C122.41263683 115.54813299 123.63426242 96.05803901 123.12304688 76.75341797 C122.49730463 62.75119359 116.91199786 48.79150591 107.375 38.4375 C85.80059563 18.90213995 54.85680364 24 28 24 Z " fill="#191919" transform="translate(791,464)"/>
<path d="M0 0 C92.16584158 0 92.16584158 0 107 13 C107.60457031 13.50015625 108.20914063 14.0003125 108.83203125 14.515625 C118.77561572 23.44102108 122.24627974 36.5994334 123.28125 49.5078125 C123.68228007 64.44618278 120.23075179 80.10944205 109.84765625 91.40625 C106.62750392 94.18388668 103.03460562 96.34409473 99.390625 98.51953125 C96.9306106 99.91680601 96.9306106 99.91680601 95 102 C101.43249549 113.97879262 107.90978634 125.9268837 114.625 137.75 C118.89557079 145.26918556 123.13583339 152.80316933 127.3125 160.375 C127.78703613 161.2319043 128.26157227 162.08880859 128.75048828 162.97167969 C129.17958496 163.75188477 129.60868164 164.53208984 130.05078125 165.3359375 C130.42887939 166.02220215 130.80697754 166.7084668 131.1965332 167.41552734 C132 169 132 169 132 170 C104.80038316 172.64062349 104.80038316 172.64062349 97.72851562 168.75048828 C94.19726158 165.1443091 92.70968538 160.51396336 91.08496094 155.82080078 C88.95933069 150.29435346 85.87349717 145.22704396 83 140.0625 C81.80462465 137.83676254 80.61316604 135.60891675 79.42578125 133.37890625 C75.62643933 126.28133976 71.72331859 119.2443346 67.79296875 112.21875 C66.83282214 110.49508812 65.88237087 108.76474174 65 107 C46.685 106.505 46.685 106.505 28 106 C28 127.12 28 148.24 28 170 C18.76 170 9.52 170 0 170 C0 113.9 0 57.8 0 0 Z M28 25 C28 43.48 28 61.96 28 81 C34.72375 81.061875 41.4475 81.12375 48.375 81.1875 C51.52748291 81.22846802 51.52748291 81.22846802 54.74365234 81.27026367 C56.44107492 81.27903935 58.13850389 81.28668072 59.8359375 81.29296875 C60.6916333 81.30831665 61.5473291 81.32366455 62.42895508 81.33947754 C70.97110392 81.34311456 79.33053339 79.6084151 86 74 C92.7753736 66.39399166 94.50368806 59.68440278 94.30078125 49.5390625 C93.55695861 40.78707149 90.24641531 35.51326968 83.8046875 29.69140625 C76.57733858 25.33285182 68.89271431 24.56225323 60.6171875 24.70703125 C59.3643396 24.71156311 59.3643396 24.71156311 58.08618164 24.71618652 C55.01565904 24.73168575 51.94531489 24.77356693 48.875 24.8125 C38.541875 24.9053125 38.541875 24.9053125 28 25 Z " fill="#191919" transform="translate(445,464)"/>
<path d="M0 0 C49.5 0 99 0 150 0 C150 13.2 150 26.4 150 40 C132.51 40 115.02 40 97 40 C97 83.23 97 126.46 97 171 C82.48 171 67.96 171 53 171 C53 127.77 53 84.54 53 40 C35.51 40 18.02 40 0 40 C0 26.8 0 13.6 0 0 Z " fill="#191919" transform="translate(1076,253)"/>
<path d="M0 0 C14.85 0 29.7 0 45 0 C45 43.23 45 86.46 45 131 C67.11 131 89.22 131 112 131 C112 144.2 112 157.4 112 171 C75.04 171 38.08 171 0 171 C0 114.57 0 58.14 0 0 Z " fill="#191919" transform="translate(783,253)"/>
<path d="M0 0 C35.31 0 70.62 0 107 0 C107 8.25 107 16.5 107 25 C80.93 25 54.86 25 28 25 C28 40.18 28 55.36 28 71 C49.45 71 70.9 71 93 71 C93 79.25 93 87.5 93 96 C71.55 96 50.1 96 28 96 C28 120.42 28 144.84 28 170 C18.76 170 9.52 170 0 170 C0 113.9 0 57.8 0 0 Z " fill="#191919" transform="translate(595,464)"/>
<path d="M0 0 C14.52 0 29.04 0 44 0 C44 56.43 44 112.86 44 171 C29.48 171 14.96 171 0 171 C0 114.57 0 58.14 0 0 Z " fill="#191919" transform="translate(1247,253)"/>
<path d="M0 0 C9.24 0 18.48 0 28 0 C28 56.1 28 112.2 28 170 C18.76 170 9.52 170 0 170 C0 113.9 0 57.8 0 0 Z " fill="#191919" transform="translate(727,464)"/>
<path d="M0 0 C6.12829812 3.13636806 10.05704759 7.52270528 12.2578125 14.125 C12.91977187 21.56731462 13.42421363 28.34545388 8.75 34.51171875 C4.36321926 39.25449479 0.02539427 42.67808685 -6.57421875 43.4609375 C-14.24551635 43.56147875 -19.7849774 42.85255058 -25.4921875 37.4765625 C-30.95832887 31.45855109 -32.21901898 26.19442078 -32.05078125 18.12890625 C-31.40899857 11.88167989 -28.86748549 7.887901 -24.2421875 3.75 C-17.22773626 -1.9572126 -8.65182514 -2.76069634 0 0 Z " fill="#0858DB" transform="translate(319.7421875,382.875)"/>
<path d="M0 0 C4.97725721 2.97793613 8.40745897 7.07491608 10.9375 12.25 C12.52371305 20.33968658 12.16638738 27.39705233 7.5625 34.4375 C3.40341187 39.04009279 -1.00247877 42.03003541 -7.26953125 42.7734375 C-15.2348933 42.87783281 -20.28936702 41.92850301 -26.41015625 36.77734375 C-31.50721757 31.68028243 -33.21300948 26.59058427 -33.4375 19.4375 C-33.01712592 13.14189773 -30.94661286 7.90229726 -26.4375 3.4375 C-19.00250879 -2.69365142 -8.87421051 -3.91009275 0 0 Z " fill="#0858DB" transform="translate(146.4375,461.5625)"/>
</svg>
