<?xml version="1.0" encoding="UTF-8"?>
<svg version="1.1" xmlns="http://www.w3.org/2000/svg" width="1772" height="887">
<path d="M0 0 C38 0 38 0 45.625 6.9375 C46.77602143 9.16699126 47.92738098 11.40067004 48.92333984 13.70361328 C50.75470512 17.60969532 53.37681448 20.92246302 55.9375 24.375 C56.94151015 25.79796022 57.94148993 27.2237724 58.9375 28.65234375 C62.06677389 33.10793905 65.24575783 37.52651041 68.4375 41.9375 C68.97681152 42.68298096 69.51612305 43.42846191 70.07177734 44.1965332 C71.71379281 46.46488195 73.35672048 48.73256684 75 51 C77.18867633 54.01998367 79.37595837 57.04097051 81.5625 60.0625 C82.03163818 60.70888428 82.50077637 61.35526855 82.98413086 62.02124023 C88.73066761 69.96280191 94.34568686 77.98972305 100 86 C100.33 57.62 100.66 29.24 101 0 C115.52 0 130.04 0 145 0 C145 56.1 145 112.2 145 170 C132.46 170 119.92 170 107 170 C95.61528297 155.19986786 95.61528297 155.19986786 91.1875 148.8125 C90.17011447 147.35878422 89.1518548 145.90567988 88.1328125 144.453125 C87.61879883 143.72029297 87.10478516 142.98746094 86.57519531 142.23242188 C83.93326715 138.48818891 81.24928029 134.77462116 78.5625 131.0625 C78.02262451 130.31653564 77.48274902 129.57057129 76.92651367 128.80200195 C75.83161956 127.28986573 74.73648578 125.77790301 73.64111328 124.26611328 C70.92351817 120.51355186 68.21212874 116.75651291 65.5 113 C64.97253174 112.26990723 64.44506348 111.53981445 63.90161133 110.78759766 C61.04088306 106.82792844 58.18286101 102.86633572 55.328125 98.90234375 C54.72935547 98.07154297 54.13058594 97.24074219 53.51367188 96.38476562 C52.35798175 94.78113359 51.20300731 93.17698548 50.04882812 91.57226562 C49.53255859 90.85619141 49.01628906 90.14011719 48.484375 89.40234375 C48.02772461 88.76804443 47.57107422 88.13374512 47.10058594 87.48022461 C46.07674551 86.02823404 46.07674551 86.02823404 45 85 C44.67 113.05 44.34 141.1 44 170 C29.48 170 14.96 170 0 170 C0 113.9 0 57.8 0 0 Z " fill="#FFFFFF" transform="translate(1513,254)"/>
<path d="M0 0 C1.13695312 1.02867187 1.13695312 1.02867187 2.296875 2.078125 C3.05484375 2.74328125 3.8128125 3.4084375 4.59375 4.09375 C19.46936597 17.94346142 28.42233951 38.39250913 29.42285156 58.62573242 C30.11603508 83.99493314 26.70125865 107.91483572 8.859375 127.390625 C7.03310727 129.31772017 5.17347068 131.19879376 3.296875 133.078125 C2.63945313 133.74714844 1.98203125 134.41617188 1.3046875 135.10546875 C-15.36535991 150.88120031 -39.40847626 156.18159088 -61.703125 156.078125 C-84.62582188 155.24828514 -106.44722949 149.95472274 -123.703125 134.078125 C-124.54359375 133.32917969 -125.3840625 132.58023438 -126.25 131.80859375 C-141.006558 117.96873102 -149.8299252 97.73672956 -150.82910156 77.53051758 C-151.50607616 52.75453271 -148.37959373 29.30658926 -131.390625 9.890625 C-129.84792211 8.26741068 -128.28528943 6.66290027 -126.703125 5.078125 C-125.94257812 4.30597656 -125.18203125 3.53382813 -124.3984375 2.73828125 C-92.83510266 -27.53147429 -33.13610152 -28.37143333 0 0 Z M-94.703125 34.078125 C-104.94886181 47.48729207 -106.14599715 62.80240088 -104.703125 79.078125 C-102.72759093 90.80274436 -97.02605523 101.60322949 -87.234375 108.578125 C-75.10517649 115.76579819 -62.30821061 118.00848918 -48.515625 114.890625 C-38.22264723 112.01504113 -29.37626529 106.57031425 -23.515625 97.515625 C-15.49816072 83.21709913 -14.3241869 67.91374536 -17.703125 52.078125 C-21.48734845 39.62110929 -28.30738382 30.48061775 -39.703125 24.078125 C-58.22649157 16.09340914 -80.73836885 19.01241297 -94.703125 34.078125 Z " fill="#FFFFFF" transform="translate(1464.703125,270.921875)"/>
<path d="M0 0 C16.1903747 14.05146281 24.21505597 35.04343493 26 56 C27.6523315 81.91653028 21.75228853 105.37388738 4.625 125.25 C-12.67158555 143.6643921 -35.31182393 151.97684463 -60.265625 152.96484375 C-87.5238478 153.51115834 -112.37297226 145.69928944 -132.30078125 126.8203125 C-150.71672544 107.29583574 -154.7782973 83.4217159 -154.28125 57.64453125 C-153.54191865 35.60321536 -144.95750023 15.4072416 -129 0 C-92.76211875 -31.69493987 -36.24377413 -30.40585078 0 0 Z M-97.3125 30.25 C-106.78253588 41.72478138 -110.36955828 56.25379712 -109 71 C-106.99557881 84.95325761 -102.31482433 96.61809376 -91.0234375 105.56640625 C-80.36107126 112.68173033 -67.42244096 114.40384853 -54.90625 112.5390625 C-43.99783475 110.14933235 -34.99879263 104.7641131 -28 96 C-25.94845181 92.78911338 -24.40462316 89.53816062 -23 86 C-22.6803125 85.21496094 -22.360625 84.42992187 -22.03125 83.62109375 C-17.12365551 69.10279339 -18.80199242 51.53067858 -25.5078125 37.9453125 C-31.7544103 27.22440745 -40.41305407 21.91625826 -52 18 C-68.24022974 13.90756571 -85.77686133 18.04594115 -97.3125 30.25 Z " fill="#FFFFFF" transform="translate(739,274)"/>
<path d="M0 0 C0 14.85 0 29.7 0 45 C-5.61 45.66 -11.22 46.32 -17 47 C-39.13401906 52.03626485 -59.21348985 64.57900262 -71.75 83.75 C-82.56397075 101.00069037 -86.0977527 118.90173133 -86.17578125 138.98828125 C-86.1990017 141.32878482 -86.2231199 143.66927961 -86.24804688 146.00976562 C-86.28289245 149.64467065 -86.31237607 153.2792562 -86.32592773 156.91430664 C-86.47912804 191.39851784 -93.89414154 223.31738327 -117 250 C-117.43280273 250.50821289 -117.86560547 251.01642578 -118.31152344 251.54003906 C-128.28221711 263.18586754 -139.59144625 272.48514953 -153 280 C-153.5976416 280.33773438 -154.1952832 280.67546875 -154.81103516 281.0234375 C-174.58568088 292.04214556 -196.43672106 297 -219 297 C-219 282.15 -219 267.3 -219 252 C-208.605 250.515 -208.605 250.515 -198 249 C-175.56515009 242.90120585 -156.74594829 229.93167148 -144.625 209.8984375 C-134.77154391 192.32328265 -131.90577563 175.18978055 -131.82421875 155.25390625 C-131.80100421 153.01105849 -131.77688623 150.76821994 -131.75195312 148.52539062 C-131.71709438 145.05731145 -131.68760563 141.58956975 -131.67407227 138.12133789 C-131.58976394 119.97170108 -130.51262038 102.24765501 -123.75 85.1875 C-123.45335449 84.415271 -123.15670898 83.64304199 -122.85107422 82.84741211 C-116.19229082 65.99919804 -106.43456789 52.17497999 -94 39 C-93.31550781 38.25105469 -92.63101563 37.50210938 -91.92578125 36.73046875 C-73.68121821 17.47419242 -47.83629144 5.81255015 -22 1.25 C-21.30092529 1.12214111 -20.60185059 0.99428223 -19.8815918 0.86254883 C-13.06648436 -0.24663313 -7.16340171 0 0 0 Z " fill="#FFFFFF" transform="translate(332,295)"/>
<path d="M0 0 C14.85 0 29.7 0 45 0 C45.01458252 3.18897949 45.02916504 6.37795898 45.04418945 9.66357422 C45.09461238 20.22083987 45.1612212 30.77795923 45.23571491 41.3350811 C45.28036952 47.73346564 45.31963668 54.13178722 45.34643555 60.53027344 C45.37251717 66.70956447 45.41295448 72.8886126 45.46318626 79.06775284 C45.47982204 81.4207163 45.49135673 83.77372174 45.49761391 86.12673569 C45.50729058 89.43224065 45.53539345 92.73712877 45.56762695 96.04248047 C45.56619186 97.00705673 45.56475677 97.971633 45.5632782 98.96543884 C45.69909401 108.86673913 48.02560758 118.63329801 55 126 C63.73818213 131.86746524 73.34673703 133.32806622 83.65625 131.5390625 C90.30195811 129.79558969 96.34597477 126.88625122 100.3125 121.078125 C104.4290269 113.26883133 105.29976403 105.99045824 105.31884766 97.29125977 C105.32889328 96.23685196 105.3389389 95.18244415 105.34928894 94.09608459 C105.38005918 90.62786377 105.39713915 87.15971994 105.4140625 83.69140625 C105.43277907 81.2800175 105.45235285 78.86863527 105.4727478 76.45726013 C105.52402311 70.12309616 105.56367361 63.78891097 105.60089111 57.45465088 C105.6409595 50.98599009 105.69203894 44.51741723 105.7421875 38.04882812 C105.83889243 25.36594112 105.92229666 12.68301767 106 0 C120.85 0 135.7 0 151 0 C151.06806565 13.65745952 151.12298248 27.3148044 151.15543652 40.9723959 C151.17102117 47.31572768 151.19212648 53.65893632 151.22631836 60.00219727 C151.25917034 66.13601435 151.276907 72.26971379 151.28463173 78.40361214 C151.29012921 80.731302 151.30086286 83.0589862 151.31719017 85.38662529 C151.4853679 110.38055422 149.36061225 134.06503381 131.375 153.1875 C114.51255094 169.18651041 92.93626004 173.55709449 70.35913086 172.97583008 C58.20465258 172.39476751 45.78092956 169.7784149 35 164 C34.21625 163.60425781 33.4325 163.20851563 32.625 162.80078125 C18.18815344 154.92818836 9.10085725 142.14152856 3.625 126.9375 C-0.55368274 112.40031605 -0.26415499 98.10759397 -0.1953125 83.10546875 C-0.19157639 80.70266335 -0.18873225 78.29985642 -0.18673706 75.89704895 C-0.17914767 69.61221007 -0.15954006 63.32746552 -0.1373291 57.04266357 C-0.11676893 50.61374181 -0.1077137 44.18480463 -0.09765625 37.75585938 C-0.07628927 25.17052508 -0.04114597 12.58528519 0 0 Z " fill="#FFFFFF" transform="translate(905,254)"/>
<path d="M0 0 C0.98226562 0.69029297 0.98226562 0.69029297 1.984375 1.39453125 C10.21933738 7.71650458 15.63019582 18.02598899 18 28 C18.5652194 32.66545508 18.86287752 37.30355518 19 42 C16.30834475 42.89721842 14.49713669 43.17461276 11.7121582 43.29711914 C10.85149246 43.33708511 9.99082672 43.37705109 9.1040802 43.41822815 C8.17899155 43.45681442 7.25390289 43.4954007 6.30078125 43.53515625 C5.35059616 43.57813339 4.40041107 43.62111053 3.4214325 43.66539001 C0.3852854 43.80178806 -2.65108509 43.93221369 -5.6875 44.0625 C-7.74546021 44.15390378 -9.8034032 44.24569585 -11.86132812 44.33789062 C-16.90736344 44.56310052 -21.95360719 44.78295424 -27 45 C-27.17958252 43.97700806 -27.17958252 43.97700806 -27.36279297 42.93334961 C-27.52924316 42.03624268 -27.69569336 41.13913574 -27.8671875 40.21484375 C-28.02815918 39.32659912 -28.18913086 38.43835449 -28.35498047 37.52319336 C-29.39494123 33.45506525 -30.84614648 31.81104335 -34 29 C-39.76932656 25.75089318 -45.72550784 24.9937783 -52.140625 26.50390625 C-56.73415712 27.99255092 -59.54117259 29.67246376 -62 34 C-63.07408241 37.93830216 -63.21568154 40.26668277 -62.0625 44.1875 C-56.89005637 51.24083222 -46.75866835 52.61551201 -38.75 54.75 C3.70978712 66.52716723 3.70978712 66.52716723 16 84 C22.83176454 96.38879751 23.26440215 112.77427056 19.375 126.25 C14.35316071 139.67073428 6.57747667 148.32543426 -6.35791016 154.62426758 C-28.03054543 164.47206937 -55.14016488 164.53581651 -77.41015625 156.48046875 C-92.0247345 150.45334671 -102.9274134 141.71306361 -109.2890625 127.0234375 C-111.66572493 120.6799716 -113.14453611 114.99649743 -113.0625 108.1875 C-113.05347656 107.21167969 -113.04445313 106.23585938 -113.03515625 105.23046875 C-113.02355469 104.49441406 -113.01195312 103.75835937 -113 103 C-108.21711853 102.71099021 -103.43400287 102.4263486 -98.65063477 102.14550781 C-97.02817003 102.04966194 -95.40577165 101.95268507 -93.78344727 101.85449219 C-84.84852831 101.31448475 -75.95651667 100.82178549 -67 101 C-66.88817383 101.62922363 -66.77634766 102.25844727 -66.66113281 102.90673828 C-65.70306329 108.07598988 -64.61794651 112.02025884 -61 116 C-53.05309765 120.96177152 -44.97375657 123.35345933 -35.625 121.5390625 C-31.56854435 120.40485615 -29.36293527 119.37157659 -26.375 116.3125 C-24.6021348 112.04150656 -24.37401051 109.32487597 -26 105 C-30.46094698 99.60552151 -36.16954059 97.46224628 -42.6875 95.5 C-43.60233154 95.20794678 -44.51716309 94.91589355 -45.4597168 94.61499023 C-50.03754306 93.16656962 -54.63713237 91.80853812 -59.2578125 90.50390625 C-75.45468907 85.90860723 -94.23864301 79.80134546 -104 65 C-110.21354398 52.15602891 -111.58499189 36.01862812 -106.96484375 22.37109375 C-106.64644531 21.58863281 -106.32804687 20.80617188 -106 20 C-105.50693359 18.74896484 -105.50693359 18.74896484 -105.00390625 17.47265625 C-99.22402912 4.49293217 -88.40180922 -4.7418667 -75.3125 -9.8125 C-50.76784173 -17.92290882 -21.09330153 -15.54059467 0 0 Z " fill="#FFFFFF" transform="translate(553,265)"/>
<path d="M0 0 C14.52 0 29.04 0 44 0 C44 24.54221895 44 24.54221895 42.4375 33.75 C42.26114014 34.82797852 42.08478027 35.90595703 41.90307617 37.01660156 C36.12737795 70.30127051 23.10716762 101.83893588 3 129 C2.56075195 129.59619141 2.12150391 130.19238281 1.66894531 130.80664062 C-11.81318938 148.93606415 -27.73762928 164.70730315 -46 178 C-46.54011719 178.39654785 -47.08023438 178.7930957 -47.63671875 179.20166016 C-84.6486228 206.04847773 -129.58528093 219 -175 219 C-175 204.15 -175 189.3 -175 174 C-168.503125 173.4121875 -168.503125 173.4121875 -161.875 172.8125 C-115.22829083 168.14206958 -72.01573652 148.12615317 -41.5625 111.8125 C-17.18710042 81.37460824 -2.85329512 45.22480535 -1.2109375 6.16015625 C-1 3 -1 3 0 0 Z " fill="#FFFFFF" transform="translate(288,460)"/>
<path d="M0 0 C0 14.85 0 29.7 0 45 C-3.465 45.226875 -6.93 45.45375 -10.5 45.6875 C-45.00038146 48.40247847 -77.56951648 59.61828977 -105 81 C-105.90234375 81.680625 -106.8046875 82.36125 -107.734375 83.0625 C-144.47345565 111.75811329 -165.6150077 153.34730508 -172 199 C-172.66 205.6 -173.32 212.2 -174 219 C-188.85 219 -203.7 219 -219 219 C-217.82806254 193.21737579 -217.82806254 193.21737579 -216.3125 184 C-216.13879883 182.92024902 -215.96509766 181.84049805 -215.78613281 180.72802734 C-206.45552058 125.59332646 -174.60324468 73.96032342 -129.00390625 41.42285156 C-128.34261719 40.95331055 -127.68132812 40.48376953 -127 40 C-126.39542969 39.56139648 -125.79085937 39.12279297 -125.16796875 38.67089844 C-88.61070753 12.26618038 -44.70842747 0 0 0 Z " fill="#FFFFFF" transform="translate(332,208)"/>
<path d="M0 0 C93.27058824 0 93.27058824 0 110 9 C110.8146875 9.41765625 111.629375 9.8353125 112.46875 10.265625 C129.99862466 19.91815092 142.10502348 36.49027587 148.06640625 55.37890625 C148.80980458 58.248352 149.46766249 61.08442838 150 64 C150.18304687 65.00160156 150.36609375 66.00320313 150.5546875 67.03515625 C153.51870473 93.42530969 150.48370872 120.02327181 133.97265625 141.65625 C118.90077059 159.31733844 99.46411717 167.19198535 77 170 C51.59 170 26.18 170 0 170 C0 113.9 0 57.8 0 0 Z M28 24 C28 64.26 28 104.52 28 146 C70.52563964 148.64341694 70.52563964 148.64341694 107.375 131.5625 C120.96228732 116.83361193 123.81036208 98.23921341 123.34765625 78.90234375 C122.64729287 63.21571024 117.38709669 48.63762263 106.4140625 37.1875 C85.01098887 17.79312907 54.5999418 24 28 24 Z " fill="#FFFFFF" transform="translate(791,465)"/>
<path d="M0 0 C94.37438221 0 94.37438221 0 109.7421875 14.62109375 C117.87882553 23.19412586 122.48755515 34.14971294 123 46 C123.0515625 46.95261719 123.103125 47.90523437 123.15625 48.88671875 C123.59331349 63.98362012 120.0351563 78.01780219 110.3125 89.8125 C107.22354088 93.04403253 104.02762693 95.41082694 100.23046875 97.76171875 C99.24844482 98.37362061 98.2664209 98.98552246 97.25463867 99.6159668 C96.51060791 100.07269775 95.76657715 100.52942871 95 101 C102.15300496 114.47509777 109.32025084 127.93206019 116.875 141.1875 C120.77855383 148.03687388 124.62084686 154.90873306 128.3125 161.875 C128.69196777 162.58938232 129.07143555 163.30376465 129.46240234 164.03979492 C132 168.86920198 132 168.86920198 132 170 C121.44 170 110.88 170 100 170 C91.39919227 154.53508611 82.81414892 139.06226776 74.28125 123.55981445 C73.64832031 122.41085693 73.01539063 121.26189941 72.36328125 120.078125 C71.77756348 119.01400391 71.1918457 117.94988281 70.58837891 116.85351562 C69.26857829 114.48249971 67.91792192 112.13604194 66.54296875 109.796875 C65 107 65 107 65 105 C52.79 105 40.58 105 28 105 C28 126.45 28 147.9 28 170 C18.76 170 9.52 170 0 170 C0 113.9 0 57.8 0 0 Z M28 24 C28 42.48 28 60.96 28 80 C35.21875 80.0825 42.4375 80.165 49.875 80.25 C52.13327637 80.28641602 54.39155273 80.32283203 56.71826172 80.36035156 C58.53872736 80.3720506 60.35920358 80.38223954 62.1796875 80.390625 C63.10015869 80.41108887 64.02062988 80.43155273 64.96899414 80.45263672 C73.29310299 80.45704684 80.53314034 78.44608132 86.875 72.875 C93.14214478 65.88187391 94.65116402 58.25420676 94.31640625 49.04296875 C93.53417468 41.52002558 90.29927732 35.40742583 85 30 C74.18713304 22.14032466 59.4908695 23.75689932 46.875 23.875 C40.64625 23.91625 34.4175 23.9575 28 24 Z " fill="#FFFFFF" transform="translate(445,465)"/>
<path d="M0 0 C49.5 0 99 0 150 0 C150 13.2 150 26.4 150 40 C132.51 40 115.02 40 97 40 C97 82.9 97 125.8 97 170 C82.48 170 67.96 170 53 170 C53 127.1 53 84.2 53 40 C35.51 40 18.02 40 0 40 C0 26.8 0 13.6 0 0 Z " fill="#FFFFFF" transform="translate(1076,254)"/>
<path d="M0 0 C14.85 0 29.7 0 45 0 C45 42.9 45 85.8 45 130 C67.11 130 89.22 130 112 130 C112 143.2 112 156.4 112 170 C75.04 170 38.08 170 0 170 C0 113.9 0 57.8 0 0 Z " fill="#FFFFFF" transform="translate(783,254)"/>
<path d="M0 0 C35.31 0 70.62 0 107 0 C107 7.92 107 15.84 107 24 C80.93 24 54.86 24 28 24 C28 39.51 28 55.02 28 71 C49.45 71 70.9 71 93 71 C93 78.92 93 86.84 93 95 C71.55 95 50.1 95 28 95 C28 119.75 28 144.5 28 170 C18.76 170 9.52 170 0 170 C0 113.9 0 57.8 0 0 Z " fill="#FFFFFF" transform="translate(595,465)"/>
<path d="M0 0 C14.52 0 29.04 0 44 0 C44 56.1 44 112.2 44 170 C29.48 170 14.96 170 0 170 C0 113.9 0 57.8 0 0 Z " fill="#FFFFFF" transform="translate(1247,254)"/>
<path d="M0 0 C9.24 0 18.48 0 28 0 C28 56.1 28 112.2 28 170 C18.76 170 9.52 170 0 170 C0 113.9 0 57.8 0 0 Z " fill="#FFFFFF" transform="translate(727,465)"/>
<path d="M0 0 C4.88104461 5.14488486 7.59770252 10.94189693 7.875 18.0625 C7.46558049 25.51603464 4.88618007 30.22961939 -0.5 35.3125 C-5.7971004 39.57744481 -10.38476002 40.66280639 -17.125 40.375 C-24.10967643 39.54143779 -29.08294901 36.72963143 -33.5625 31.3125 C-37.16408906 25.70867159 -38.44759896 18.63870863 -37.0625 12.125 C-34.31794378 4.76459922 -30.0992391 -0.50368842 -22.875 -3.875 C-14.27144958 -5.73066774 -7.54513569 -4.38670679 0 0 Z " fill="#FFFFFF" transform="translate(150.6875,464.5625)"/>
<path d="M0 0 C5.44061626 3.07959411 10.68420438 6.53369982 12.875 12.6953125 C14.31393476 19.86429103 14.55980926 27.73687578 10.703125 34.16015625 C6.69427894 39.103649 1.66445913 42.48663164 -4.61328125 43.6953125 C-10.79343856 44.23069336 -16.48966061 43.37789176 -21.6875 39.875 C-26.49939868 35.19507322 -30.21004612 30.90004728 -31.0234375 24.04296875 C-31.11015998 17.42604361 -30.74390747 12.27517093 -26.6875 6.875 C-19.01253834 -0.79996166 -10.30846333 -3.14495492 0 0 Z " fill="#FFFFFF" transform="translate(318.6875,383.125)"/>
</svg>
