<?xml version="1.0" encoding="UTF-8"?>
<svg version="1.1" xmlns="http://www.w3.org/2000/svg" width="592" height="1182">
<path d="M0 0 C0 32.34 0 64.68 0 98 C-9.9 98.99 -19.8 99.98 -30 101 C-69.12473079 108.26025932 -104.00078782 124.49242657 -133 152 C-133.48936035 152.45681152 -133.9787207 152.91362305 -134.48291016 153.38427734 C-147.465954 165.56674732 -158.23698914 179.50178245 -167 195 C-167.35513672 195.61746094 -167.71027344 196.23492187 -168.07617188 196.87109375 C-188.20701985 232.10879991 -193.08235164 269.52752125 -193.19923019 309.44084167 C-193.21121044 313.17891353 -193.23070833 316.91687942 -193.25234985 320.65490723 C-193.31332793 331.27251293 -193.36779963 341.89008508 -193.40136719 352.5078125 C-193.42254508 359.03626407 -193.45802073 365.56451461 -193.50212479 372.09284973 C-193.51609475 374.55147406 -193.52496317 377.01013386 -193.52817917 379.46879578 C-193.64636461 461.17274265 -227.14552344 533.42824 -284.54125977 590.72412109 C-290.43862113 596.56208928 -296.37567381 601.9935968 -303 607 C-303.97324219 607.77859375 -304.94648438 608.5571875 -305.94921875 609.359375 C-319.3403707 620.03012299 -333.9233015 628.92779478 -349 637 C-349.61069336 637.33064453 -350.22138672 637.66128906 -350.85058594 638.00195312 C-392.92272695 660.59916287 -438.61560179 670 -486 670 C-486 637.66 -486 605.32 -486 572 C-476.1 571.01 -466.2 570.02 -456 569 C-421.56543846 562.49959808 -391.4088427 550.10413571 -364 528 C-363.38785645 527.50886719 -362.77571289 527.01773438 -362.14501953 526.51171875 C-343.49273377 511.41058913 -328.55826164 493.01998456 -317 472 C-316.6601709 471.3822168 -316.3203418 470.76443359 -315.97021484 470.12792969 C-298.31646485 437.52210355 -292.54097433 402.97544264 -292.58930969 366.21886063 C-292.59389285 362.42067753 -292.57949901 358.62293538 -292.56091309 354.82479858 C-292.52458962 346.75820357 -292.51035019 338.69166429 -292.5 330.625 C-292.48798134 321.26386455 -292.46576132 311.90298581 -292.41999817 302.5419426 C-292.40670336 298.85237937 -292.41054625 295.16311778 -292.41540527 291.47354126 C-292.36746165 271.13618719 -290.70412615 250.86800005 -286.5 230.9375 C-286.25354736 229.76324463 -286.00709473 228.58898926 -285.75317383 227.37915039 C-280.82789676 205.21758354 -273.17230881 183.28754382 -263 163 C-262.60989746 162.21028809 -262.21979492 161.42057617 -261.81787109 160.60693359 C-251.12161742 139.08950022 -237.72072835 117.81350123 -221.16015625 100.30078125 C-219.30470048 98.32453631 -217.53159554 96.30993462 -215.76171875 94.2578125 C-206.15205603 83.23711069 -195.61823518 72.88453278 -184 64 C-182.49953125 62.80890625 -182.49953125 62.80890625 -180.96875 61.59375 C-172.95240665 55.25813385 -164.62602525 49.47337724 -156 44 C-155.37738281 43.60345215 -154.75476563 43.2069043 -154.11328125 42.79833984 C-107.43983818 13.41091164 -54.8252282 0 0 0 Z " fill="#0858DB" transform="translate(539,256)"/>
<path d="M0 0 C32.67 0 65.34 0 99 0 C99 27.18542922 99 27.18542922 97.8125 40.4375 C97.74720093 41.19114838 97.68190186 41.94479675 97.61462402 42.72128296 C94.43908655 78.95080699 87.11465742 114.36917664 76 149 C75.65743164 150.07024414 75.31486328 151.14048828 74.96191406 152.24316406 C56.73189554 208.49627808 27.35791564 263.38324691 -11.50390625 308.10546875 C-13.82161686 310.79314256 -16.04080193 313.53557505 -18.25 316.3125 C-27.26588429 327.35496359 -37.3881805 337.46942893 -47.4375 347.5625 C-48.17025146 348.29992432 -48.90300293 349.03734863 -49.65795898 349.79711914 C-54.2771777 354.40270411 -59.05539308 358.74830821 -64 363 C-65.15650728 364.02167506 -66.31150224 365.04506503 -67.46484375 366.0703125 C-76.64641239 374.17331942 -86.17014711 381.70127925 -96 389 C-97.06492676 389.79639893 -97.06492676 389.79639893 -98.15136719 390.60888672 C-170.80337547 444.79311693 -258.73902868 477.08438905 -349 484 C-350.09199707 484.08677002 -350.09199707 484.08677002 -351.20605469 484.17529297 C-363.1760341 485.1000713 -374.95123885 485 -387 485 C-387 452.33 -387 419.66 -387 386 C-378.42 385.67 -369.84 385.34 -361 385 C-355.14488824 384.5385378 -349.32934745 384.04684751 -343.5 383.375 C-342.75739929 383.29108002 -342.01479858 383.20716003 -341.24969482 383.12069702 C-298.96624927 378.26144566 -258.45739377 366.19662751 -220 348 C-219.12762695 347.58911133 -218.25525391 347.17822266 -217.35644531 346.75488281 C-196.37350262 336.79236124 -176.65117399 324.83875903 -158 311 C-157.41573242 310.5673584 -156.83146484 310.1347168 -156.22949219 309.68896484 C-139.46951794 297.20292793 -124.14109727 283.20192341 -109.3125 268.5 C-108.43335938 267.63391113 -107.55421875 266.76782227 -106.6484375 265.87548828 C-100.66244124 259.89736834 -95.27654351 253.60649061 -90 247 C-89.13639319 245.97263364 -88.26799673 244.9492301 -87.390625 243.93359375 C-66.82781303 219.95615425 -50.59350714 192.42698485 -37 164 C-36.65114746 163.2771582 -36.30229492 162.55431641 -35.94287109 161.80957031 C-17.74588532 123.81406791 -6.86760951 82.48715577 -2.1875 40.6875 C-2.07559326 39.70193115 -1.96368652 38.7163623 -1.84838867 37.70092773 C-0.59765557 25.15260546 -0.46780135 12.63063638 0 0 Z " fill="#0858DB" transform="translate(440,635)"/>
<path d="M0 0 C0 32.67 0 65.34 0 99 C-8.58 99.33 -17.16 99.66 -26 100 C-31.95896381 100.48315923 -37.87909366 100.99848291 -43.8125 101.6875 C-44.561828 101.77236664 -45.31115601 101.85723328 -46.08319092 101.94467163 C-61.26971471 103.68609207 -76.13184666 106.41689934 -91 110 C-92.11020508 110.26683594 -93.22041016 110.53367187 -94.36425781 110.80859375 C-154.84816918 125.6325603 -210.50651458 155.73418283 -257 197 C-257.969375 197.85722656 -258.93875 198.71445312 -259.9375 199.59765625 C-271.58880956 210.09333321 -283.23350398 220.9858662 -292.9140625 233.35546875 C-294.83381406 235.78931109 -296.8325201 238.13306292 -298.86889648 240.46948242 C-357.92327472 308.58505923 -382.9819267 396.60238746 -387 485 C-419.67 485 -452.34 485 -486 485 C-486 390.79585491 -458.8313149 297.70905985 -374.5234375 175.92578125 C-372.05318301 173.06166266 -369.67802228 170.13834776 -367.3125 167.1875 C-364.04013298 163.16266356 -360.59452651 159.48164975 -356.875 155.87109375 C-355.105232 154.10501276 -353.4887438 152.28325204 -351.875 150.375 C-344.59054396 141.91833265 -336.48646808 133.89394764 -327.96484375 126.6875 C-325.5404227 124.60529345 -323.21649968 122.42497793 -320.875 120.25 C-315.13941585 115.0258191 -309.11455035 110.25999468 -302.97021484 105.52880859 C-300.87959992 103.90657432 -298.80800363 102.26207472 -296.73828125 100.61328125 C-286.50675758 92.49439857 -276.00676027 85.02887849 -265 78 C-264.19224121 77.48083008 -263.38448242 76.96166016 -262.55224609 76.42675781 C-199.95651315 36.35282098 -129.41521306 11.11218578 -55.5625 2.6875 C-54.85213593 2.60609772 -54.14177185 2.52469543 -53.40988159 2.44082642 C-35.56104369 0.42859618 -18.043487 0 0 0 Z " fill="#0858DB" transform="translate(539,62)"/>
<path d="M0 0 C11.69998596 7.75856429 19.68138672 17.20467801 23.53125 30.765625 C26.28072538 44.66003266 24.33826935 57.9150229 17.13671875 70.20703125 C8.74140234 82.48674779 -2.26917357 89.01949472 -16.65234375 91.953125 C-31.50304006 94.37811212 -44.75836794 89.61971686 -56.92578125 81.26953125 C-67.47429808 70.72101442 -73.61370361 58.41672573 -73.98828125 43.45703125 C-73.60031795 27.93849918 -67.61790896 15.83891174 -56.48828125 5.20703125 C-41.25681348 -7.84108619 -17.39076208 -9.79935952 0 0 Z " fill="#0858DB" transform="translate(126.73828125,640.54296875)"/>
<path d="M0 0 C9.29196174 8.56017721 15.36999637 19.95354155 16.25 32.58984375 C16.87860563 47.99442341 12.46088511 61.17858558 2 72.6875 C-7.8691005 82.12169099 -20.90482296 86.4213795 -34.36938477 86.36572266 C-47.31346291 86.0618776 -58.82697127 81.08520274 -68.25 72.25 C-78.36928009 61.5174302 -82.39063626 48.75247329 -82.2109375 34.21484375 C-81.35934454 21.23593616 -75.6923413 8.78077753 -66 0 C-45.60267266 -15.5286985 -20.20451315 -16.07013769 0 0 Z " fill="#0858DB" transform="translate(523,461)"/>
</svg>
