<?xml version="1.0" encoding="UTF-8"?>
<svg version="1.1" xmlns="http://www.w3.org/2000/svg" width="591" height="1182">
<path d="M0 0 C0 32.34 0 64.68 0 98 C-9.9 98.99 -19.8 99.98 -30 101 C-83.41663484 111.3945884 -129.78142657 139.23323515 -160.47900391 184.66943359 C-173.32541755 204.35352102 -182.34638306 226.09365105 -187.6875 248.9375 C-187.89012451 249.7944043 -188.09274902 250.65130859 -188.30151367 251.53417969 C-191.8260719 267.30279148 -192.29232196 282.74914114 -192.30496025 298.84360313 C-192.30868013 302.66291009 -192.32556157 306.48197005 -192.34571838 310.30122375 C-192.39370758 319.79326192 -192.42553227 329.28533091 -192.44702148 338.77746582 C-192.46522982 346.80573472 -192.49508357 354.83374837 -192.54106331 362.8619175 C-192.55251877 365.369445 -192.55864191 367.87700406 -192.55874443 370.38455772 C-192.5600222 393.33290286 -193.76216228 416.46646665 -198.75 438.9375 C-199.13188477 440.7167688 -199.13188477 440.7167688 -199.52148438 442.53198242 C-201.97873077 453.59628468 -205.22463092 464.32078348 -209 475 C-209.3707666 476.07048584 -209.3707666 476.07048584 -209.74902344 477.16259766 C-221.96517166 512.24422496 -241.36314992 545.49928924 -266.80859375 572.66015625 C-268.74670734 574.72955026 -270.60034904 576.8414562 -272.4375 579 C-279.40572044 586.97999952 -286.93686402 594.19886699 -295.234375 600.78125 C-297.02788524 602.22011132 -298.79117435 603.69780595 -300.515625 605.21875 C-317.05158365 619.72397688 -336.41902841 631.12967524 -356 641 C-356.78133301 641.39735352 -357.56266602 641.79470703 -358.36767578 642.20410156 C-397.81509442 661.9488159 -441.21231963 670 -485 670 C-485 637.66 -485 605.32 -485 572 C-475.43 571.01 -465.86 570.02 -456 569 C-414.66051549 562.23535708 -379.1957743 543.7558024 -349 515 C-348.29359375 514.34644531 -347.5871875 513.69289063 -346.859375 513.01953125 C-315.71390354 483.33004728 -294.56643043 436.35584308 -292.89899921 393.39792347 C-292.85242114 390.50719262 -292.83387419 387.61766003 -292.82641602 384.7265625 C-292.819729 383.63399139 -292.81304199 382.54142029 -292.80615234 381.41574097 C-292.79216149 379.05378301 -292.78024878 376.69181202 -292.77020454 374.32983398 C-292.75365042 370.56684721 -292.730401 366.8039546 -292.70530701 363.04101562 C-292.6349763 352.34477407 -292.57489381 341.64849532 -292.52319336 330.95214844 C-292.49099971 324.39290019 -292.44962023 317.83375792 -292.40299797 311.27459717 C-292.38720393 308.80004831 -292.37478138 306.32547512 -292.36609077 303.85089111 C-292.29063466 282.64973166 -291.59902097 261.40879328 -287.8125 240.5 C-287.59819336 239.29770752 -287.38388672 238.09541504 -287.16308594 236.85668945 C-277.43502028 184.55285695 -252.92443634 134.56043348 -216.5 95.68359375 C-214.36370577 93.39041542 -212.29297234 91.06336739 -210.25 88.6875 C-204.65010444 82.24961532 -198.52518128 76.48799969 -192 71 C-191.45730469 70.54351074 -190.91460937 70.08702148 -190.35546875 69.61669922 C-135.96914339 24.09581073 -70.91189231 0 0 0 Z " fill="#FFFFFF" transform="translate(538,256)"/>
<path d="M0 0 C32.34 0 64.68 0 98 0 C98 114.62479821 58.65508557 225.90586031 -35.06640625 334.08984375 C-36.21776402 335.22628112 -37.37118846 336.36063126 -38.52734375 337.4921875 C-39.91718269 338.91520562 -41.18317014 340.4562094 -42.4375 342 C-45.04076726 345.04772752 -47.79624758 347.50136477 -50.83984375 350.08984375 C-53.10651996 352.09419215 -55.20363264 354.2057715 -57.3125 356.375 C-61.31829955 360.4286504 -65.56317199 364.01393625 -70.01171875 367.5703125 C-72.09570176 369.26474052 -74.12998303 370.96997704 -76.14453125 372.7421875 C-118.46739226 409.97352943 -170.20279144 437.93500168 -223 457 C-224.05171387 457.3825293 -225.10342773 457.76505859 -226.18701172 458.15917969 C-265.7409346 472.38912955 -307.1698088 480.46068499 -349 484 C-349.82580566 484.07057617 -350.65161133 484.14115234 -351.50244141 484.21386719 C-363.34199198 485.17775909 -375.09563131 485 -387 485 C-387 452.33 -387 419.66 -387 386 C-374.46 385.34 -361.92 384.68 -349 384 C-301.72306458 378.52994136 -256.75389972 366.03442831 -214 345 C-212.71971924 344.37424072 -212.71971924 344.37424072 -211.41357422 343.73583984 C-186.57502584 331.47961409 -163.11759133 315.90746567 -142 298 C-140.50146484 296.76056641 -140.50146484 296.76056641 -138.97265625 295.49609375 C-124.38626457 283.38950026 -110.32655621 270.41745135 -98 256 C-96.72576172 254.55947266 -96.72576172 254.55947266 -95.42578125 253.08984375 C-32.50015268 181.59127057 -5.49968456 93.49463751 0 0 Z " fill="#FFFFFF" transform="translate(440,635)"/>
<path d="M0 0 C0 32.67 0 65.34 0 99 C-8.58 99.33 -17.16 99.66 -26 100 C-30.84026036 100.35271223 -35.62106595 100.72471715 -40.4375 101.25 C-41.6330249 101.37858398 -42.8285498 101.50716797 -44.06030273 101.63964844 C-84.20311088 106.211109 -123.27252066 117.22164513 -160 134 C-160.83869629 134.37560059 -161.67739258 134.75120117 -162.54150391 135.13818359 C-181.57626176 143.6852127 -199.94833696 153.95048667 -217 166 C-218.10934836 166.77217369 -219.218725 167.54430676 -220.328125 168.31640625 C-244.94897705 185.56979723 -268.07714847 205.45770043 -288 228 C-288.47324707 228.52851563 -288.94649414 229.05703125 -289.43408203 229.6015625 C-308.30568596 250.72449329 -324.33615346 274.22478936 -338 299 C-338.4846875 299.8775293 -338.969375 300.75505859 -339.46875 301.65917969 C-371.03646381 359.3072508 -382.66544636 419.98169544 -387 485 C-419.34 485 -451.68 485 -485 485 C-485 453.31618633 -485 453.31618633 -483.875 441.5625 C-483.81131226 440.87297241 -483.74762451 440.18344482 -483.68200684 439.47302246 C-474.77762846 344.26219186 -437.14278457 250.07134324 -375 177 C-374.54947266 176.46600586 -374.09894531 175.93201172 -373.63476562 175.38183594 C-372.13548215 173.60531513 -370.63129092 171.83308223 -369.125 170.0625 C-368.67946777 169.53744873 -368.23393555 169.01239746 -367.77490234 168.47143555 C-359.15268068 158.41419313 -350.03084165 148.84416336 -340.66601562 139.48071289 C-338.99578905 137.8082835 -337.33377621 136.12796331 -335.671875 134.44726562 C-329.8147656 128.56034741 -323.87426629 123.03806646 -317.35205078 117.88452148 C-315.10646894 116.08530556 -312.98482583 114.2053686 -310.875 112.25 C-303.95566723 106.0434937 -296.44476542 100.55304973 -289 95 C-288.26539551 94.45118164 -287.53079102 93.90236328 -286.77392578 93.33691406 C-268.40373729 79.67609262 -249.04578828 68.02625476 -229 57 C-228.18563477 56.54882812 -227.37126953 56.09765625 -226.53222656 55.6328125 C-205.57744031 44.07396676 -183.51556371 35.03028851 -161 27 C-160.07525879 26.66403809 -159.15051758 26.32807617 -158.19775391 25.98193359 C-130.67892744 16.03986682 -101.89584831 9.41608151 -73 5 C-71.52781006 4.77256104 -71.52781006 4.77256104 -70.02587891 4.54052734 C-58.70332338 2.83091932 -47.35387147 1.68388925 -35.9375 0.8125 C-34.8753125 0.72846924 -33.813125 0.64443848 -32.71875 0.55786133 C-21.75620573 -0.20296951 -11.0775363 0 0 0 Z " fill="#FFFFFF" transform="translate(538,62)"/>
<path d="M0 0 C10.82142759 8.56490464 17.38343753 19.84258315 19.32421875 33.546875 C20.52190726 45.83284103 18.01295324 58.77599979 10.484375 68.8046875 C8.26544774 71.32224381 5.97414431 73.69457366 3.56640625 76.03125 C2.98890625 76.61777344 2.41140625 77.20429687 1.81640625 77.80859375 C-5.67609439 84.88684556 -15.36962872 87.92648391 -25.43359375 89.03125 C-26.13613281 89.11503906 -26.83867188 89.19882812 -27.5625 89.28515625 C-40.87731401 90.0683806 -53.38936496 84.64123645 -63.44921875 76.375 C-72.22430091 68.2866634 -77.9871134 56.61701069 -78.81640625 44.72265625 C-79.34348368 31.26929141 -76.81524191 19.83279658 -68.43359375 9.03125 C-67.69109375 8 -66.94859375 6.96875 -66.18359375 5.90625 C-48.66627656 -12.40730888 -20.59837113 -14.15201044 0 0 Z " fill="#FFFFFF" transform="translate(131.43359375,643.96875)"/>
<path d="M0 0 C9.47402483 9.034362 15.99068513 19.60992192 16.66796875 32.921875 C16.69144651 34.67302019 16.69236516 36.42459855 16.671875 38.17578125 C16.66357666 39.09665527 16.65527832 40.0175293 16.64672852 40.96630859 C16.47505337 47.87363683 15.59205657 53.60902229 12.234375 59.73828125 C11.73679687 60.66769531 11.23921875 61.59710937 10.7265625 62.5546875 C3.81947269 74.36099218 -6.3614277 82.24047127 -19.625 85.87890625 C-31.85934725 88.73112097 -45.33336796 87.38047404 -56.35546875 81.3125 C-58.58145766 79.87912611 -60.67476198 78.36072282 -62.765625 76.73828125 C-63.796875 75.99578125 -64.828125 75.25328125 -65.890625 74.48828125 C-74.28659975 66.45734888 -80.68103785 55.21846093 -81.00390625 43.39453125 C-81.37083705 26.47622399 -78.20531363 14.65514494 -66.453125 1.98828125 C-48.30826987 -15.22294598 -19.29356172 -15.77820937 0 0 Z " fill="#FFFFFF" transform="translate(521.765625,460.26171875)"/>
</svg>
